<svg xmlns="http://www.w3.org/2000/svg" viewBox="0 0 32 32">
  <path d="M16 2C9.37 2 4 7.37 4 14v4c0 2.95-1.49 5.51-3.76 7.03.12.91.45 1.75.97 2.47C2.45 29.57 3.85 31 5.67 31c1.23 0 2.33-.5 3.13-1.3C10 30.04 12.88 31 16 31s6-.96 7.2-1.3c.8.8 1.9 1.3 3.13 1.3 1.82 0 3.22-1.43 3.76-3.49.52-.72.85-1.56.97-2.47C28.76 23.51 27.28 20.95 27.28 18v-4C27.28 7.37 21.91 2 16 2z" fill="#808898"/>
  <circle cx="12" cy="13" r="2.5" fill="#0a0f1a"/>
  <circle cx="20" cy="13" r="2.5" fill="#0a0f1a"/>
  <path d="M13.5 20v2.5M16 20v2.5M18.5 20v2.5" stroke="#0a0f1a" stroke-width="1.5" stroke-linecap="round"/>
  <path d="M11 22h10" stroke="#0a0f1a" stroke-width="1" stroke-linecap="round"/>
</svg>
