<svg xmlns="http://www.w3.org/2000/svg" viewBox="0 0 48 48">
  <path d="M24 4C14.06 4 6 12.06 6 22v6c0 4.42-2.24 8.26-5.64 10.54.18 1.36.68 2.62 1.46 3.7C3.68 44.36 5.78 46 8.5 46c1.84 0 3.5-.74 4.7-1.94C15 45.06 19.32 46 24 46s9-.94 10.8-1.94C36 45.26 37.66 46 39.5 46c2.72 0 4.82-1.64 6.68-3.76.78-1.08 1.28-2.34 1.46-3.7C44.24 36.26 42 32.42 42 28v-6C42 12.06 33.94 4 24 4z" fill="#808898"/>
  <circle cx="17" cy="20" r="4" fill="#0a0f1a"/>
  <circle cx="31" cy="20" r="4" fill="#0a0f1a"/>
  <path d="M20 30v4M24 30v4M28 30v4" stroke="#0a0f1a" stroke-width="2" stroke-linecap="round"/>
  <path d="M16 33h16" stroke="#0a0f1a" stroke-width="1.5" stroke-linecap="round"/>
</svg>
