<svg xmlns="http://www.w3.org/2000/svg" width="32" height="38" viewBox="0 0 32 38" fill="none">
  <path d="M16 3C10.48 3 6 7.48 6 13v5c0 2.2-.9 3.9-2.1 5.1l0.4 1.2C5.6 25.9 6.8 27 8.2 27c.9 0 1.7-.35 2.3-.95C12 26.6 13.9 27 16 27s4-.4 5.5-.95c.6.6 1.4.95 2.3.95 1.4 0 2.6-.9 3.9-1.65L28.1 23.1C26.9 21.9 26 20.2 26 18v-5C26 7.48 21.52 3 16 3z" fill="#c8d0e0" stroke="#00d4ff" stroke-width="1"/>
  <circle cx="12.5" cy="13" r="2" fill="#0a0f1a"/>
  <circle cx="19.5" cy="13" r="2" fill="#0a0f1a"/>
  <circle cx="13.2" cy="12.3" r="0.6" fill="rgba(255,255,255,0.6)"/>
  <circle cx="20.2" cy="12.3" r="0.6" fill="rgba(255,255,255,0.6)"/>
  <path d="M13.5 18.5v1.6M16 18.5v1.6M18.5 18.5v1.6" stroke="#0a0f1a" stroke-width="1.2" stroke-linecap="round"/>
  <line x1="16" y1="27" x2="16" y2="36" stroke="#00d4ff" stroke-width="1.8" stroke-linecap="round"/>
  <line x1="13" y1="27.5" x2="19" y2="27.5" stroke="#00d4ff" stroke-width="1.5" stroke-linecap="round"/>
  <line x1="13" y1="35.5" x2="19" y2="35.5" stroke="#00d4ff" stroke-width="1.5" stroke-linecap="round"/>
</svg>